<svg width="24" height="24" viewBox="0 0 24 24" fill="none" xmlns="http://www.w3.org/2000/svg">
<path d="M21.12 6.384C21.072 5.904 20.928 5.472 20.592 5.088C20.304 4.752 19.968 4.512 19.632 4.224C19.488 4.08 19.056 3.744 18.96 3.504C18.912 3.264 19.008 2.976 19.2 2.928C19.536 2.832 20.112 2.832 20.448 2.832C20.736 2.832 21.024 2.736 21.024 2.64C21.024 2.544 20.88 2.352 20.64 2.304C20.448 2.256 20.208 2.208 20.016 2.112C19.728 1.92 19.44 1.536 19.056 1.488C18.48 1.392 18.096 1.584 17.904 2.064C17.616 2.784 17.808 3.696 18.432 4.32C18.72 4.608 19.056 4.896 19.344 5.136C19.584 5.328 19.776 5.568 19.968 5.808C20.496 6.48 19.92 7.68 19.824 7.776C19.344 8.256 18.96 8.352 18.192 8.304C17.424 8.256 15.408 7.2 14.352 7.2C11.712 7.104 9.88799 8.352 9.26399 8.688C8.35199 9.168 7.00799 9.216 7.00799 9.216C6.43199 9.264 5.18399 9.312 4.55999 9.504C3.69599 9.744 3.21599 10.128 2.92799 11.04C2.83199 11.424 2.83199 11.76 2.92799 12C3.21599 12.48 4.03199 12.864 4.41599 13.056C4.60799 13.152 4.99199 13.008 5.03999 12.96C5.47199 12.672 5.80799 12.432 6.28799 12.384C6.38399 12.384 7.10399 12.24 7.43999 12.48C7.67999 12.672 7.91999 12.768 8.20799 12.912C8.73599 13.152 9.88799 13.44 9.88799 13.44C10.032 13.488 10.224 13.584 10.224 13.68C10.224 13.872 8.39999 15.408 8.30399 15.456C7.82399 15.648 7.58399 15.936 7.48799 16.416C7.43999 16.56 7.39199 16.704 7.29599 16.848C7.00799 17.28 5.66399 19.152 5.32799 19.68C5.18399 19.92 4.99199 20.064 4.75199 20.064C4.41599 20.112 4.17599 20.112 4.03199 20.352C3.93599 20.496 3.98399 20.832 4.07999 21.024C4.12799 21.264 3.98399 21.552 3.93599 21.552C3.79199 21.888 3.69599 22.176 3.74399 22.512C3.83999 22.752 3.83999 23.04 4.03199 23.04C4.27199 23.04 4.31999 22.896 4.31999 22.848C4.36799 22.8 4.46399 22.56 4.51199 22.464C4.65599 22.224 5.13599 21.696 5.23199 21.6C5.42399 21.408 8.11199 17.616 8.11199 17.616C8.25599 17.424 8.39999 17.232 8.68799 17.136C9.02399 16.992 9.26399 16.704 9.35999 16.32C9.35999 16.224 10.464 15.408 10.944 15.024C11.136 14.88 12.144 14.496 12.144 14.496C12.144 14.496 11.232 15.936 10.896 16.704C10.848 16.848 10.752 17.232 10.848 17.472C10.992 17.808 11.28 17.952 11.568 17.856C11.664 17.808 11.76 17.76 11.856 17.712C11.904 17.712 11.952 17.664 11.952 17.664C12 17.664 12.048 17.616 12.048 17.616C12.144 17.568 12.24 17.52 12.288 17.52C12.624 17.424 12.912 17.328 13.248 17.232L13.872 17.04C14.304 16.896 14.784 16.752 15.216 16.608C15.312 16.56 15.408 16.56 15.552 16.56C15.6 16.56 15.696 16.608 15.696 16.704C15.696 16.704 15.744 17.04 15.936 17.136C16.032 17.184 16.224 17.232 16.368 17.232C16.512 17.232 16.656 17.28 16.752 17.328L16.848 17.424C16.944 17.472 17.04 17.52 17.088 17.568C17.136 17.568 17.28 17.568 17.376 17.52C17.472 17.424 17.424 17.28 17.424 17.232C17.424 17.184 17.376 17.136 17.328 17.088L17.28 16.992C17.232 16.896 17.136 16.8 17.088 16.656C16.896 16.368 16.704 16.08 16.512 15.792C16.32 15.504 15.984 15.36 15.6 15.456C15.456 15.504 12.048 16.56 12 16.56C12.192 16.224 13.248 14.688 13.584 14.496C13.824 14.352 13.92 14.208 14.304 14.16C15.12 14.016 16.848 13.632 17.28 13.296C18.096 12.672 18.192 11.28 18.192 10.992C18.192 10.704 18.288 10.512 18.528 10.368C18.624 10.32 19.92 9.6 20.592 8.496C20.976 7.824 21.168 7.152 21.12 6.384Z" fill="#FB5607"/>
</svg>
