<svg width="24" height="24" viewBox="0 0 24 24" fill="none" xmlns="http://www.w3.org/2000/svg">
<path d="M9.54108 23.7003C9.25789 23.7003 8.97021 23.7003 8.68702 23.7003C8.60611 23.687 8.5252 23.6737 8.44429 23.6559C7.86893 23.5274 7.27109 23.4565 6.72269 23.257C2.56477 21.7454 0.865648 17.0821 2.78953 13.3542C4.14703 10.7167 7.15421 9.15632 10.1254 9.55527C10.3277 9.58186 10.3817 9.65722 10.3772 9.84783C10.3592 10.925 10.3502 12.0022 10.3367 13.0838C10.3367 13.301 10.3367 13.5226 10.3367 13.7664C10.2108 13.7398 10.1254 13.7176 10.04 13.6999C7.74306 13.1547 5.61241 15.0165 6.02146 17.3791C6.23723 18.6425 7.01936 19.5113 8.25101 19.8969C9.46916 20.2782 10.5839 20.0033 11.5099 19.1301C12.0673 18.6026 12.4494 17.9731 12.4404 17.1619C12.4314 16.5502 12.4763 15.9385 12.4763 15.3223C12.4853 11.4126 12.4898 7.50732 12.4943 3.59761C12.4943 2.82187 12.4988 2.04614 12.5033 1.2704C12.5033 1.19948 12.5078 1.12855 12.5123 1.05319C12.6696 1.03546 12.809 1.01773 12.9483 1C14.0406 1 15.1374 1 16.2297 1C16.3106 2.36973 16.7152 3.62421 17.6456 4.67478C18.5581 5.70318 19.7538 6.23068 21.0799 6.50551C21.381 6.56757 21.6822 6.61633 21.9834 6.67396C21.9834 7.92844 21.9834 9.18735 21.9834 10.4418C20.0055 10.3709 18.1806 9.82567 16.5399 8.72634C16.5084 8.70417 16.4634 8.69531 16.387 8.66871C16.387 9.07653 16.387 9.46218 16.387 9.8434C16.387 11.7273 16.3915 13.6113 16.3825 15.4952C16.378 16.1512 16.387 16.8117 16.3106 17.4633C15.969 20.3668 13.7844 22.7871 10.9076 23.4742C10.4626 23.5895 9.99508 23.6293 9.54108 23.7003Z" fill="#FB5607"/>
</svg>
