<?xml version="1.0" encoding="UTF-8"?><svg id="Layer_1" xmlns="http://www.w3.org/2000/svg" viewBox="0 0 250 100"><defs><style>.cls-1{fill:#f6931b;}.cls-2{fill:#042e4a;}</style></defs><path class="cls-2" d="M59.63,22.25h-12.94c-1.39,0-2.5,1.12-2.5,2.5v29.18H4.47c-1.39,0-2.5,1.12-2.5,2.5s1.12,2.5,2.5,2.5h42.21c1.39,0,2.5-1.12,2.5-2.5v-29.18h10.42c1.39,0,2.5-1.12,2.5-2.5.01-1.39-1.11-2.5-2.49-2.5h0Z"/><path class="cls-2" d="M36.96,63.79c-5.13,0-9.32,4.17-9.32,9.32s4.17,9.32,9.32,9.32,9.32-4.17,9.32-9.32c-.01-5.14-4.19-9.32-9.32-9.32Z"/><path class="cls-2" d="M13.4,63.79c-5.13,0-9.32,4.17-9.32,9.32s4.17,9.32,9.32,9.32,9.32-4.17,9.32-9.32c-.01-5.14-4.19-9.32-9.32-9.32Z"/><polygon class="cls-1" points="21.78 38.84 21.76 38.88 21.65 38.83 21.78 38.84"/><polygon class="cls-1" points="18.63 38.52 21.65 38.83 18.63 38.52 18.63 38.52 22.75 32.15 18.63 38.52"/><polygon class="cls-1" points="23.33 42.87 19.8 46.91 23.33 42.87 23.33 42.87"/><path class="cls-1" d="M37.9,26.6v19.35c0,1.39-1.12,2.51-2.51,2.51h-16.77l5.56-5.45c2.37.32,4.13-.1,4.93-2.36.72-2.04-.04-3.22-1.51-3.99,1.08-.25,1.89-.96,2.1-2.42.3-1.99-1.22-3.07-3.3-3.78l.67-2.7-1.64-.41-.66,2.63c-.43-.11-.88-.21-1.32-.31l.66-2.65-1.64-.41-.67,2.7c-.36-.08-.71-.16-1.05-.25h0s-2.27-.58-2.27-.58l-.44,1.76s1.19.27,1.19.3c.67.17.79.61.77.96l-.77,3.08s.11.03.17.05c-.05-.01-.11-.03-.17-.04l-1.08,4.31c-.08.2-.29.5-.75.39.02.02-1.19-.3-1.19-.3l-.82,1.88,2.14.54c.4.1.79.2,1.17.3l-.68,2.73,1.26.31h0s-1.47,3.69-1.47,3.69h-8.08c-1.39,0-2.52-1.12-2.51-2.51v-19.35c0-1.39,1.12-2.51,2.51-2.51h25.65c1.39,0,2.51,1.12,2.51,2.51Z"/><polygon class="cls-1" points="18.63 48.45 18.36 48.71 17.32 49.74 18.25 48.67 18.44 48.45 18.63 48.45"/><polygon class="cls-1" points="21.65 38.83 18.63 38.52 18.63 38.52 18.63 38.52 21.65 38.83"/><path class="cls-1" d="M26.8,38.93l-.11.12-1.17,1.32-.14.16-.05.06-2,2.28h0l-3.54,4.04-1.36,1.55h-.61l1.47-3.69h0s2.36-5.94,2.36-5.94l.11.05.02-.04h-.12s-3.02-.32-3.02-.32l4.12-6.37c.05-.07.1-.14.16-.2,0-.01.02-.02.03-.03.02-.02.05-.05.07-.07.14-.13.31-.23.49-.3.04-.02.09-.03.14-.04.05-.01.09-.02.14-.03.03,0,.07-.01.1-.01.03,0,.06,0,.09,0,0,0,0,0,.01,0h.01s.09,0,.14,0c.02,0,.04,0,.05,0,.12.01.24.03.36.07.1.03.19.07.28.12l.3.18s.06.04.09.06c.06.04.12.08.17.13.58.51.7,1.4.24,2.05l-1.45,2.05c-.15.21-.07.51.17.61l2.16.9c.52.22.67.88.3,1.3Z"/><path class="cls-1" d="M18.44,48.45l-.19.22h0l-.93,1.07.5-1.22s-.01,0-.01,0l.02-.05h.61Z"/><polygon class="cls-1" points="21.65 38.83 18.63 38.52 18.63 38.52 18.63 38.52 21.65 38.83"/><path class="cls-2" d="M68.25,30.5c3.93,0,7.07.42,9.95,1.46.1.03.16.13.16.23v7.33c0,.17-.16.28-.32.23-2-.68-5.82-1.89-10.28-1.89-1.89,0-2.54.43-2.54,1.14,0,3.14,14.28,1.08,14.28,10.81,0,6.16-4.76,8.92-12.27,8.92-3.93,0-7.08-.42-9.95-1.51-.09-.04-.16-.13-.16-.23v-7.32c0-.17.17-.29.32-.23,2,.73,5.82,1.94,10.27,1.94,1.89,0,2.6-.49,2.6-1.14,0-3.14-14.33-1.14-14.33-10.87,0-6.11,4.76-8.87,12.27-8.87Z"/><path class="cls-2" d="M96.42,30.55c8.54,0,14.22,5.62,14.22,14.06v13.27c0,.13-.11.24-.24.24h-8.71c-.13,0-.24-.11-.24-.24v-5.35c0-.13-.11-.24-.24-.24h0c-.13,0-.24.11-.24.24v.3c0,3.08-2.81,5.84-7.57,5.84-6.81,0-11.19-5.25-11.19-13.46,0-9.57,5.68-14.65,14.22-14.65ZM96.42,50.02c3.03,0,5.03-2.22,5.03-5.41s-2-5.41-5.03-5.41-5.03,2.22-5.03,5.41,2,5.41,5.03,5.41Z"/><path class="cls-2" d="M113.67,38.01v-12.3c0-.13.11-.24.24-.24h8.71c.13,0,.24.11.24.24v5.46c0,.13.11.24.24.24h7.14c.13,0,.24.11.24.24v7.62c0,.13-.11.24-.24.24h-7.14c-.14,0-.25.11-.24.25.05,5.97,1.81,9.07,7.38,9.16.13,0,.24.11.24.24v8.71c0,.14-.11.25-.25.24-11.82-.1-16.57-7.17-16.57-20.11Z"/><path class="cls-2" d="M145.41,30.5c3.93,0,7.07.42,9.95,1.46.1.03.16.13.16.23v7.33c0,.17-.16.28-.32.23-2-.68-5.82-1.89-10.28-1.89-1.89,0-2.54.43-2.54,1.14,0,3.14,14.28,1.08,14.28,10.81,0,6.16-4.76,8.92-12.27,8.92-3.93,0-7.08-.42-9.95-1.51-.09-.04-.16-.13-.16-.23v-7.32c0-.17.17-.29.32-.23,2,.73,5.82,1.94,10.27,1.94,1.89,0,2.6-.49,2.6-1.14,0-3.14-14.33-1.14-14.33-10.87,0-6.11,4.76-8.87,12.27-8.87Z"/><path class="cls-2" d="M191.07,17.57h8.71c.13,0,.24.11.24.24v25.1c0,.24.32.34.45.13l7.65-11.85c.04-.07.12-.11.2-.11h9.68c.2,0,.31.22.2.38l-8.19,12.02c-.06.09-.06.2,0,.28l10.47,13.96c.12.16,0,.39-.19.39h-9.94c-.08,0-.15-.04-.19-.1l-5.08-6.77c-.1-.13-.3-.13-.4,0l-4.6,6.75c-.05.07-.12.11-.2.11h-8.82c-.13,0-.24-.11-.24-.24V17.82c0-.13.11-.24.24-.24Z"/><path class="cls-2" d="M173.58,30.12c-7.98,0-14.49,6.49-14.49,14.49s6.49,14.49,14.49,14.49,14.49-6.49,14.49-14.49c-.02-8-6.51-14.49-14.49-14.49Z"/><path class="cls-2" d="M233.55,30.12c-7.98,0-14.49,6.49-14.49,14.49s6.49,14.49,14.49,14.49,14.49-6.49,14.49-14.49c-.02-8-6.51-14.49-14.49-14.49Z"/></svg>